<svg width="1200" height="700" viewBox="0 0 1200 700" fill="none" xmlns="http://www.w3.org/2000/svg">
  <rect width="1200" height="700" rx="36" fill="#F4F8FF"/>
  <rect x="28" y="28" width="1144" height="644" rx="28" fill="white" stroke="#D8E3F0" stroke-width="2"/>
  <rect x="28" y="28" width="1144" height="84" rx="28" fill="url(#paint0_linear)"/>
  <text x="70" y="80" fill="white" font-family="Arial, sans-serif" font-size="30" font-weight="700">Company Panel</text>
  <rect x="70" y="152" width="292" height="470" rx="24" fill="#F8FBFF" stroke="#D8E3F0" stroke-width="2"/>
  <rect x="392" y="152" width="738" height="118" rx="24" fill="#123A72"/>
  <rect x="392" y="298" width="738" height="196" rx="24" fill="#FFFFFF" stroke="#D8E3F0" stroke-width="2"/>
  <rect x="392" y="520" width="738" height="102" rx="24" fill="#FFF9F2" stroke="#F3D8B6" stroke-width="2"/>
  <rect x="98" y="188" width="236" height="118" rx="20" fill="white" stroke="#D8E3F0" stroke-width="2"/>
  <rect x="98" y="334" width="236" height="118" rx="20" fill="white" stroke="#D8E3F0" stroke-width="2"/>
  <rect x="98" y="480" width="236" height="114" rx="20" fill="white" stroke="#D8E3F0" stroke-width="2"/>
  <rect x="424" y="184" width="280" height="18" rx="9" fill="#9FDCFF"/>
  <rect x="424" y="222" width="392" height="32" rx="16" fill="white" fill-opacity="0.18"/>
  <rect x="848" y="184" width="108" height="56" rx="16" fill="#FFFFFF" fill-opacity="0.14"/>
  <rect x="974" y="184" width="108" height="56" rx="16" fill="#FFFFFF" fill-opacity="0.14"/>
  <rect x="424" y="334" width="204" height="16" rx="8" fill="#EF6B00"/>
  <rect x="424" y="370" width="668" height="16" rx="8" fill="#123A72" fill-opacity="0.12"/>
  <rect x="424" y="404" width="640" height="16" rx="8" fill="#123A72" fill-opacity="0.12"/>
  <rect x="424" y="438" width="188" height="34" rx="17" fill="#1295DB" fill-opacity="0.12"/>
  <rect x="630" y="438" width="208" height="34" rx="17" fill="#EF6B00" fill-opacity="0.12"/>
  <rect x="856" y="438" width="172" height="34" rx="17" fill="#FFB000" fill-opacity="0.18"/>
  <text x="70" y="652" fill="#6F7F94" font-family="Arial, sans-serif" font-size="24">Preview for README screenshots section</text>
  <defs>
    <linearGradient id="paint0_linear" x1="28" y1="28" x2="1172" y2="112" gradientUnits="userSpaceOnUse">
      <stop stop-color="#EF6B00"/>
      <stop offset="0.45" stop-color="#1295DB"/>
      <stop offset="1" stop-color="#123A72"/>
    </linearGradient>
  </defs>
</svg>
