<svg width="1200" height="700" viewBox="0 0 1200 700" fill="none" xmlns="http://www.w3.org/2000/svg">
  <rect width="1200" height="700" rx="36" fill="#F4F8FF"/>
  <rect x="28" y="28" width="1144" height="644" rx="28" fill="white" stroke="#D8E3F0" stroke-width="2"/>
  <rect x="28" y="28" width="1144" height="84" rx="28" fill="url(#paint0_linear)"/>
  <rect x="70" y="53" width="62" height="34" rx="17" fill="white" fill-opacity="0.22"/>
  <text x="158" y="78" fill="white" font-family="Arial, sans-serif" font-size="28" font-weight="700">Candidate Dashboard</text>
  <rect x="70" y="150" width="292" height="472" rx="24" fill="#F8FBFF" stroke="#D8E3F0" stroke-width="2"/>
  <rect x="392" y="150" width="738" height="138" rx="24" fill="#123A72"/>
  <rect x="420" y="184" width="240" height="16" rx="8" fill="#9FDCFF"/>
  <rect x="420" y="216" width="320" height="30" rx="15" fill="white" fill-opacity="0.18"/>
  <rect x="820" y="180" width="116" height="72" rx="18" fill="#FFFFFF" fill-opacity="0.14"/>
  <rect x="952" y="180" width="116" height="72" rx="18" fill="#FFFFFF" fill-opacity="0.14"/>
  <rect x="392" y="314" width="738" height="150" rx="24" fill="#FFF9F2" stroke="#F3D8B6" stroke-width="2"/>
  <rect x="420" y="346" width="180" height="14" rx="7" fill="#EF6B00"/>
  <rect x="420" y="378" width="452" height="18" rx="9" fill="#123A72" fill-opacity="0.18"/>
  <rect x="420" y="414" width="126" height="34" rx="17" fill="#1295DB" fill-opacity="0.12"/>
  <rect x="558" y="414" width="144" height="34" rx="17" fill="#EF6B00" fill-opacity="0.12"/>
  <rect x="714" y="414" width="164" height="34" rx="17" fill="#FFB000" fill-opacity="0.18"/>
  <rect x="392" y="490" width="356" height="132" rx="24" fill="#F8FBFF" stroke="#D8E3F0" stroke-width="2"/>
  <rect x="774" y="490" width="356" height="132" rx="24" fill="#F8FBFF" stroke="#D8E3F0" stroke-width="2"/>
  <rect x="98" y="188" width="236" height="110" rx="20" fill="white" stroke="#D8E3F0" stroke-width="2"/>
  <rect x="98" y="324" width="236" height="120" rx="20" fill="white" stroke="#D8E3F0" stroke-width="2"/>
  <rect x="98" y="470" width="236" height="124" rx="20" fill="white" stroke="#D8E3F0" stroke-width="2"/>
  <text x="70" y="652" fill="#6F7F94" font-family="Arial, sans-serif" font-size="24">Preview for README screenshots section</text>
  <defs>
    <linearGradient id="paint0_linear" x1="28" y1="28" x2="1172" y2="112" gradientUnits="userSpaceOnUse">
      <stop stop-color="#EF6B00"/>
      <stop offset="0.35" stop-color="#FFB000"/>
      <stop offset="0.7" stop-color="#1295DB"/>
      <stop offset="1" stop-color="#123A72"/>
    </linearGradient>
  </defs>
</svg>
