<svg width="1200" height="700" viewBox="0 0 1200 700" fill="none" xmlns="http://www.w3.org/2000/svg">
  <rect width="1200" height="700" rx="36" fill="#F4F8FF"/>
  <rect x="28" y="28" width="1144" height="644" rx="28" fill="white" stroke="#D8E3F0" stroke-width="2"/>
  <rect x="28" y="28" width="1144" height="84" rx="28" fill="url(#paint0_linear)"/>
  <text x="70" y="80" fill="white" font-family="Arial, sans-serif" font-size="30" font-weight="700">Job Apply Page</text>
  <rect x="70" y="152" width="706" height="470" rx="26" fill="#FFFFFF" stroke="#D8E3F0" stroke-width="2"/>
  <rect x="804" y="152" width="326" height="470" rx="26" fill="#F8FBFF" stroke="#D8E3F0" stroke-width="2"/>
  <rect x="104" y="188" width="220" height="16" rx="8" fill="#EF6B00"/>
  <rect x="104" y="222" width="420" height="34" rx="17" fill="#123A72" fill-opacity="0.12"/>
  <rect x="104" y="278" width="638" height="18" rx="9" fill="#123A72" fill-opacity="0.12"/>
  <rect x="104" y="312" width="612" height="18" rx="9" fill="#123A72" fill-opacity="0.12"/>
  <rect x="104" y="360" width="138" height="34" rx="17" fill="#1295DB" fill-opacity="0.12"/>
  <rect x="254" y="360" width="156" height="34" rx="17" fill="#EF6B00" fill-opacity="0.12"/>
  <rect x="422" y="360" width="170" height="34" rx="17" fill="#FFB000" fill-opacity="0.18"/>
  <rect x="104" y="430" width="302" height="132" rx="22" fill="#FFF9F2" stroke="#F3D8B6" stroke-width="2"/>
  <rect x="430" y="430" width="312" height="132" rx="22" fill="#F8FBFF" stroke="#D8E3F0" stroke-width="2"/>
  <rect x="838" y="190" width="258" height="112" rx="20" fill="#123A72"/>
  <rect x="838" y="336" width="258" height="118" rx="20" fill="#FFFFFF" stroke="#D8E3F0" stroke-width="2"/>
  <rect x="838" y="488" width="258" height="86" rx="20" fill="#EF6B00"/>
  <text x="864" y="250" fill="white" font-family="Arial, sans-serif" font-size="22" font-weight="700">Apply CTA</text>
  <text x="70" y="652" fill="#6F7F94" font-family="Arial, sans-serif" font-size="24">Preview for README screenshots section</text>
  <defs>
    <linearGradient id="paint0_linear" x1="28" y1="28" x2="1172" y2="112" gradientUnits="userSpaceOnUse">
      <stop stop-color="#123A72"/>
      <stop offset="0.55" stop-color="#1295DB"/>
      <stop offset="1" stop-color="#EF6B00"/>
    </linearGradient>
  </defs>
</svg>
